<svg width="800" height="600" xmlns="http://www.w3.org/2000/svg">

 <g>
  <title>Layer 1</title>
  <rect id="svg_37" height="246" width="259" y="205" x="123" stroke="#000" fill="#000000"/>
  <ellipse stroke="#000" ry="100" rx="100" id="svg_3" cy="326.5" cx="254" fill="#fff"/>
  <path stroke="#000" id="svg_36" d="m216.5,301c-10.77348,0 -19.5,-8.72652 -19.5,-19.5c0,-10.77348 8.72652,-19.5 19.5,-19.5c10.77348,0 19.5,8.72652 19.5,19.5c0,10.77348 -8.72652,19.5 -19.5,19.5z" opacity="undefined" fill="#000000"/>
  <path id="svg_6" d="m220.5,291c-5.24862,0 -9.5,-4.25138 -9.5,-9.5c0,-5.24862 4.25138,-9.5 9.5,-9.5c5.24862,0 9.5,4.25138 9.5,9.5c0,5.24862 -4.25138,9.5 -9.5,9.5z" opacity="undefined" stroke="#000" fill="#fff"/>
  <rect id="svg_11" height="1" width="0" y="383" x="358" stroke="#000" fill="none"/>
  <g id="svg_34">
   <g id="svg_19">
    <g id="svg_15">
     <rect stroke="#000" id="svg_10" height="20" width="20" y="342" x="237" fill="none"/>
     <rect stroke="#000" id="svg_14" height="20" width="20" y="342" x="217" fill="none"/>
    </g>
    <g id="svg_18">
     <rect stroke="#000" id="svg_16" height="20" width="20" y="362" x="237" fill="none"/>
     <rect stroke="#000" id="svg_17" height="20" width="20" y="362" x="217" fill="none"/>
    </g>
   </g>
   <g id="svg_26">
    <g id="svg_22">
     <rect stroke="#000" id="svg_20" height="20" width="20" y="342" x="277" fill="none"/>
     <rect stroke="#000" id="svg_21" height="20" width="20" y="342" x="257" fill="none"/>
    </g>
    <g id="svg_25">
     <rect stroke="#000" id="svg_23" height="20" width="20" y="362" x="277" fill="none"/>
     <rect stroke="#000" id="svg_24" height="20" width="20" y="362" x="257" fill="none"/>
    </g>
   </g>
   <g id="svg_33">
    <g id="svg_29">
     <rect stroke="#000" id="svg_27" height="20" width="20" y="342" x="317" fill="none"/>
     <rect stroke="#000" id="svg_28" height="20" width="20" y="342" x="297" fill="none"/>
    </g>
    <g id="svg_32">
     <rect stroke="#000" id="svg_30" height="20" width="20" y="362" x="317" fill="none"/>
     <rect stroke="#000" id="svg_31" height="20" width="20" y="362" x="297" fill="none"/>
    </g>
   </g>
  </g>
  <path id="svg_35" d="m281.5,291c-5.24862,0 -9.5,-4.25138 -9.5,-9.5c0,-5.24862 4.25138,-9.5 9.5,-9.5c5.24862,0 9.5,4.25138 9.5,9.5c0,5.24862 -4.25138,9.5 -9.5,9.5z" opacity="undefined" stroke="#000" fill="#fff"/>
 </g>
</svg>